REM DIRINDEX 1\2,1\3,1\4
REM DIRNAME cjc064,folder01,folder02,folder03
TITLE ""
FILE "Disk2Track74.mp3" MP3
  TRACK 01 AUDIO
    TITLE "4:cjc064_2048"
    INDEX 01 00:00:00
  TRACK 02 AUDIO
    TITLE "4:cjc064_2049"
    INDEX 01 00:04:35
  TRACK 03 AUDIO
    TITLE "4:cjc064_2050"
    INDEX 01 00:07:74
  TRACK 04 AUDIO
    TITLE "0:"
    INDEX 01 00:16:02
